PathFileType	4	(X/Y/Z)	stereocamera_static.trc
DataRate	CameraRate	NumFrames	NumMarkers	Units	OrigDataRate	OrigDataStartFrame	OrigNumFrames
28.086763070077865	28.086763070077865	15	15	mm	28.086763070077865	178	203
Frame#	Time	JOINT_NECK			JOINT_RIGHT_CLAVICLE			JOINT_LEFT_CLAVICLE			JOINT_RIGHT_SHOULDER			JOINT_LEFT_SHOULDER			JOINT_RIGHT_ELBOW			JOINT_LEFT_ELBOW			JOINT_LEFT_WRIST			JOINT_RIGHT_WRIST			JOINT_SPINE_3			JOINT_SPINE_2			JOINT_SPINE_1			JOINT_PELVIS			JOINT_RIGHT_HIP			JOINT_LEFT_HIP
		X1	Y1	Z1	X2	Y2	Z2	X3	Y3	Z3	X4	Y4	Z4	X5	Y5	Z5	X6	Y6	Z6	X7	Y7	Z7	X8	Y8	Z8	X9	Y9	Z9	X10	Y10	Z10	X11	Y11	Z11	X12	Y12	Z12	X13	Y13	Z13	X14	Y14	Z14	X15	Y15	Z15

178	1749651040.106000	151.824090	26.375010	856.462200	93.233090	16.416937	919.081700	211.388230	34.458116	834.761100	24.602873	8.461848	979.423100	258.427500	41.750430	784.658970	-20.045433	-266.333220	975.199460	157.557980	-80.785710	468.915250	37.224602	-86.841050	292.899280	nan	nan	nan	150.862960	-65.424874	834.487700	148.209720	-154.321270	814.744350	53.620405	-83.898410	288.751300	64.026950	-137.228710	340.076270	62.214330	-319.810300	786.539140	nan	nan	nan
179	1749651040.139000	150.348050	26.458830	855.392750	92.321366	18.318266	910.569300	203.553360	33.525944	804.743700	23.312960	9.015739	974.019650	262.502880	42.342840	804.946200	-21.069754	-256.941200	965.093400	157.685250	-77.981520	462.383180	39.303690	-87.072310	297.656360	nan	nan	nan	149.333120	-64.442530	831.160070	143.127190	-148.936520	785.542400	49.927770	-79.658700	274.612960	58.602195	-126.142740	314.600050	62.630930	-320.048570	790.708100	208.590820	-285.218830	695.618500
180	1749651040.173000	148.540700	26.604101	851.843660	86.358620	17.825171	856.717940	204.555260	34.424870	812.834500	21.629266	8.907095	968.052000	260.371830	42.590022	799.197400	-21.950973	-251.422700	947.383340	160.199960	-79.274240	464.068600	41.151516	-86.852040	297.883630	nan	nan	nan	148.410320	-63.892630	827.636840	143.986960	-144.773220	771.722700	49.167230	-76.213720	264.865220	57.614237	-117.872780	296.773700	63.284680	-322.577830	795.397300	nan	nan	nan
181	1749651040.206000	147.210420	27.244717	846.404900	82.238704	17.654985	834.920600	203.522040	35.176173	819.932000	19.887963	8.936763	962.617160	258.223600	43.507830	792.862650	-23.310170	-246.393890	932.672900	161.718900	-79.166370	460.897680	42.953014	-85.811550	297.552200	nan	nan	nan	147.822440	-63.481650	824.307600	146.373230	-144.673440	783.082000	48.721550	-73.579890	256.894230	55.757176	-111.128960	281.341280	nan	nan	nan	nan	nan	nan
182	1749651040.240000	146.372290	27.483374	842.015740	77.007710	16.115040	791.990760	205.170880	35.475954	822.588440	18.189436	7.618293	956.665400	259.755220	44.039770	795.932650	-22.925650	-248.039360	924.792100	166.890550	-77.270284	465.002420	44.859506	-83.832120	299.083770	nan	nan	nan	147.440120	-63.325770	821.274400	143.092990	-141.617300	762.067700	49.661610	-75.485215	261.538800	55.474266	-108.874395	276.262070	nan	nan	nan	nan	nan	nan
183	1749651040.273000	145.931070	27.455420	838.836850	76.636970	15.808940	794.376000	206.323100	35.481960	822.839900	18.327303	7.403448	950.693500	255.691170	42.972310	778.428300	-22.428857	-245.144900	925.512500	165.239780	-75.828010	455.170070	47.641650	-82.407460	302.989500	nan	nan	nan	147.228720	-63.335930	818.916560	139.223710	-138.314900	739.213400	49.152220	-76.503320	262.662830	53.660322	-108.481300	273.078100	nan	nan	nan	nan	nan	nan
184	1749651040.307000	145.699500	27.308002	836.555660	75.468150	16.245216	789.186800	203.928170	35.515950	813.171860	17.947756	8.370221	948.285940	258.782000	43.652280	791.266700	-24.760328	-251.133260	911.006100	165.009100	-72.678500	449.672640	49.886033	-80.838230	306.276300	nan	nan	nan	147.145330	-63.419975	817.459170	132.387800	-132.279100	699.778440	50.741030	-79.210310	270.031300	55.667873	-113.882530	284.914260	nan	nan	nan	nan	nan	nan
185	1749651040.340000	145.574520	27.327820	834.924300	77.272780	17.345250	818.061300	203.568500	35.602227	818.331840	17.503645	9.649888	949.302140	262.565580	44.780627	805.885850	-25.711610	-248.539840	906.724930	167.889360	-71.917290	454.361860	50.624963	-80.279680	306.232480	nan	nan	nan	144.700740	-63.279720	816.087660	138.001950	-140.071800	755.312700	51.616620	-81.067520	277.671750	54.835350	-115.688205	289.681970	nan	nan	nan	nan	nan	nan
186	1749651040.373000	145.401270	27.102381	833.061640	79.916280	18.193841	846.639340	203.167500	35.395443	820.531850	17.572600	10.169700	949.661600	258.713330	43.937534	790.320700	-26.660163	-246.063050	895.957500	169.078570	-73.784240	456.248460	49.063325	-81.224190	304.267080	nan	nan	nan	145.445170	-63.373170	815.301900	135.501560	-138.422830	744.067670	53.403200	-84.986730	289.195330	56.739543	-121.212410	301.503200	nan	nan	nan	nan	nan	nan
187	1749651040.407000	143.230230	27.114093	834.026750	77.175125	18.420368	815.125200	202.856540	35.328610	820.899100	17.054811	11.218324	951.341150	256.990250	43.963313	785.402240	-26.607264	-244.231430	895.565450	172.055170	-75.827410	460.621180	48.396654	-82.120160	301.840930	nan	nan	nan	143.506210	-67.569554	813.172760	131.416480	-146.039200	740.679400	53.259756	-92.927350	298.317820	56.189780	-133.059410	312.659860	nan	nan	nan	nan	nan	nan
188	1749651040.440000	140.904600	27.203292	821.765960	80.170830	18.901378	845.109640	202.624530	35.215630	820.416300	16.183348	11.435077	947.773340	256.621180	43.859944	785.337570	-27.484823	-245.030600	901.771700	175.979990	-78.703284	466.033070	50.069110	-85.479530	305.675100	nan	nan	nan	144.534950	-66.010706	811.596200	135.001470	-145.211580	749.356500	97.605504	-170.181450	561.197640	59.828904	-133.008670	316.684930	nan	nan	nan	nan	nan	nan
189	1749651040.474000	142.143150	26.993573	822.938440	82.447470	19.155785	864.222900	202.216570	32.873960	818.229440	15.330399	12.111187	941.397250	255.042000	39.898783	778.005960	-27.038610	-257.030700	919.337400	180.957350	-79.944150	472.585900	51.588967	-90.585000	308.643040	nan	nan	nan	142.897780	-71.173880	809.789800	130.946500	-150.113520	733.812150	121.065810	-227.020280	708.055200	57.361840	-140.496790	315.552200	nan	nan	nan	nan	nan	nan
190	1749651040.507000	140.987000	24.574950	825.443740	81.815480	16.908810	880.417200	201.884030	31.228140	816.138150	13.834272	9.154782	943.927600	253.307850	36.617026	769.797600	-25.219753	-267.996130	928.694070	185.903040	-84.422260	476.848540	54.670196	-95.996365	308.601440	nan	nan	nan	141.435410	-76.540920	806.091250	133.248090	-161.505790	756.359000	129.819080	-247.607900	746.451400	56.619227	-144.510760	315.029380	nan	nan	nan	nan	nan	nan
191	1749651040.541000	140.051830	22.842050	829.335000	81.188130	15.431270	887.084700	201.483350	30.310735	814.070760	12.515176	8.056283	933.363560	246.997450	34.028932	755.185000	nan	nan	nan	188.431320	-85.860840	481.552120	58.897175	-104.386630	313.722520	-22.584995	-84.818000	244.742330	138.318600	-75.377370	804.567040	132.217680	-161.171290	762.813000	133.589680	-253.193320	765.355940	53.189090	-136.810000	302.114750	51.157730	-326.675800	798.477600	nan	nan	nan
192	1749651040.607000	140.815400	21.615520	831.213400	80.369495	17.427012	885.312860	199.905740	26.766450	806.841140	11.444432	11.170104	934.561430	242.744620	29.118240	739.148260	-41.468196	-246.315600	951.346040	192.636490	-98.391530	490.257470	65.407660	-116.886560	314.095260	-145.088210	-282.812700	875.705840	135.700180	-73.455274	803.409900	131.658180	-161.688970	778.868200	133.239820	-252.440480	768.427600	48.309475	-125.671390	285.132940	37.709907	-325.650450	806.967000	nan	nan	nan
